REM DIRINDEX 1\3,1\4,1\5,1\6,1\2\7,1\2\8,1\2\9,1\10
REM DIRNAME cjc056,folder01,folder02,folder03,folder04,folder05,folder06,folder07,folder08,folder09
TITLE ""
FILE "1-02 Level 1-001-015.mp3" MP3
  TRACK 01 AUDIO
    TITLE "0:"
    INDEX 01 00:00:00
  TRACK 02 AUDIO
    TITLE "10:cjc056_0002"
    INDEX 01 00:00:05
  TRACK 03 AUDIO
    TITLE "0:"
    INDEX 01 00:01:26
  TRACK 04 AUDIO
    TITLE "7:cjc056_0003"
    INDEX 01 00:02:04
  TRACK 05 AUDIO
    TITLE "0:"
    INDEX 01 00:03:15
  TRACK 06 AUDIO
    TITLE "8:cjc056_0004"
    INDEX 01 00:03:25
  TRACK 07 AUDIO
    TITLE "0:"
    INDEX 01 00:04:29
  TRACK 08 AUDIO
    TITLE "9:cjc056_0005"
    INDEX 01 00:04:44
  TRACK 09 AUDIO
    TITLE "0:"
    INDEX 01 00:06:16
  TRACK 10 AUDIO
    TITLE "7:cjc056_0006"
    INDEX 01 00:06:69
  TRACK 11 AUDIO
    TITLE "0:"
    INDEX 01 00:07:70
  TRACK 12 AUDIO
    TITLE "8:cjc056_0007"
    INDEX 01 00:08:09
  TRACK 13 AUDIO
    TITLE "0:"
    INDEX 01 00:09:00
  TRACK 14 AUDIO
    TITLE "9:cjc056_0008"
    INDEX 01 00:09:12
  TRACK 15 AUDIO
    TITLE "0:"
    INDEX 01 00:10:53
  TRACK 16 AUDIO
    TITLE "7:cjc056_0009"
    INDEX 01 00:11:29
  TRACK 17 AUDIO
    TITLE "0:"
    INDEX 01 00:12:30
  TRACK 18 AUDIO
    TITLE "8:cjc056_0010"
    INDEX 01 00:12:44
  TRACK 19 AUDIO
    TITLE "0:"
    INDEX 01 00:13:67
  TRACK 20 AUDIO
    TITLE "9:cjc056_0011"
    INDEX 01 00:14:06
  TRACK 21 AUDIO
    TITLE "0:"
    INDEX 01 00:15:46
  TRACK 22 AUDIO
    TITLE "7:cjc056_0012"
    INDEX 01 00:16:22
  TRACK 23 AUDIO
    TITLE "0:"
    INDEX 01 00:17:33
  TRACK 24 AUDIO
    TITLE "8:cjc056_0013"
    INDEX 01 00:17:47
  TRACK 25 AUDIO
    TITLE "0:"
    INDEX 01 00:18:54
  TRACK 26 AUDIO
    TITLE "9:cjc056_0014"
    INDEX 01 00:18:68
  TRACK 27 AUDIO
    TITLE "0:"
    INDEX 01 00:20:45
  TRACK 28 AUDIO
    TITLE "7:cjc056_0015"
    INDEX 01 00:21:21
  TRACK 29 AUDIO
    TITLE "0:"
    INDEX 01 00:22:29
  TRACK 30 AUDIO
    TITLE "8:cjc056_0016"
    INDEX 01 00:22:40
  TRACK 31 AUDIO
    TITLE "0:"
    INDEX 01 00:23:46
  TRACK 32 AUDIO
    TITLE "9:cjc056_0017"
    INDEX 01 00:23:59
  TRACK 33 AUDIO
    TITLE "0:"
    INDEX 01 00:25:29
  TRACK 34 AUDIO
    TITLE "7:cjc056_0018"
    INDEX 01 00:26:05
  TRACK 35 AUDIO
    TITLE "0:"
    INDEX 01 00:26:67
  TRACK 36 AUDIO
    TITLE "8:cjc056_0019"
    INDEX 01 00:27:08
  TRACK 37 AUDIO
    TITLE "0:"
    INDEX 01 00:28:27
  TRACK 38 AUDIO
    TITLE "9:cjc056_0020"
    INDEX 01 00:28:41
  TRACK 39 AUDIO
    TITLE "0:"
    INDEX 01 00:29:50
  TRACK 40 AUDIO
    TITLE "7:cjc056_0021"
    INDEX 01 00:30:28
  TRACK 41 AUDIO
    TITLE "0:"
    INDEX 01 00:31:18
  TRACK 42 AUDIO
    TITLE "8:cjc056_0022"
    INDEX 01 00:31:31
  TRACK 43 AUDIO
    TITLE "0:"
    INDEX 01 00:32:47
  TRACK 44 AUDIO
    TITLE "9:cjc056_0023"
    INDEX 01 00:32:58
  TRACK 45 AUDIO
    TITLE "0:"
    INDEX 01 00:34:12
  TRACK 46 AUDIO
    TITLE "7:cjc056_0024"
    INDEX 01 00:34:65
  TRACK 47 AUDIO
    TITLE "0:"
    INDEX 01 00:35:66
  TRACK 48 AUDIO
    TITLE "8:cjc056_0025"
    INDEX 01 00:36:01
  TRACK 49 AUDIO
    TITLE "0:"
    INDEX 01 00:37:18
  TRACK 50 AUDIO
    TITLE "9:cjc056_0026"
    INDEX 01 00:37:32
  TRACK 51 AUDIO
    TITLE "0:"
    INDEX 01 00:39:02
  TRACK 52 AUDIO
    TITLE "7:cjc056_0027"
    INDEX 01 00:39:52
  TRACK 53 AUDIO
    TITLE "0:"
    INDEX 01 00:40:58
  TRACK 54 AUDIO
    TITLE "8:cjc056_0028"
    INDEX 01 00:40:72
  TRACK 55 AUDIO
    TITLE "0:"
    INDEX 01 00:42:12
  TRACK 56 AUDIO
    TITLE "9:cjc056_0029"
    INDEX 01 00:42:23
  TRACK 57 AUDIO
    TITLE "0:"
    INDEX 01 00:43:58
  TRACK 58 AUDIO
    TITLE "7:cjc056_0030"
    INDEX 01 00:44:34
  TRACK 59 AUDIO
    TITLE "0:"
    INDEX 01 00:45:22
  TRACK 60 AUDIO
    TITLE "8:cjc056_0031"
    INDEX 01 00:45:37
  TRACK 61 AUDIO
    TITLE "0:"
    INDEX 01 00:46:53
  TRACK 62 AUDIO
    TITLE "9:cjc056_0032"
    INDEX 01 00:46:66
  TRACK 63 AUDIO
    TITLE "0:"
    INDEX 01 00:48:20
  TRACK 64 AUDIO
    TITLE "7:cjc056_0033"
    INDEX 01 00:48:69
  TRACK 65 AUDIO
    TITLE "0:"
    INDEX 01 00:49:63
  TRACK 66 AUDIO
    TITLE "8:cjc056_0034"
    INDEX 01 00:50:01
  TRACK 67 AUDIO
    TITLE "0:"
    INDEX 01 00:51:03
  TRACK 68 AUDIO
    TITLE "9:cjc056_0035"
    INDEX 01 00:51:16
  TRACK 69 AUDIO
    TITLE "0:"
    INDEX 01 00:52:45
  TRACK 70 AUDIO
    TITLE "7:cjc056_0036"
    INDEX 01 00:53:19
  TRACK 71 AUDIO
    TITLE "0:"
    INDEX 01 00:54:15
  TRACK 72 AUDIO
    TITLE "8:cjc056_0037"
    INDEX 01 00:54:29
  TRACK 73 AUDIO
    TITLE "0:"
    INDEX 01 00:55:30
  TRACK 74 AUDIO
    TITLE "9:cjc056_0038"
    INDEX 01 00:55:44
  TRACK 75 AUDIO
    TITLE "0:"
    INDEX 01 00:57:03
  TRACK 76 AUDIO
    TITLE "7:cjc056_0039"
    INDEX 01 00:57:54
  TRACK 77 AUDIO
    TITLE "0:"
    INDEX 01 00:58:50
  TRACK 78 AUDIO
    TITLE "8:cjc056_0040"
    INDEX 01 00:58:66
  TRACK 79 AUDIO
    TITLE "0:"
    INDEX 01 00:59:67
  TRACK 80 AUDIO
    TITLE "9:cjc056_0041"
    INDEX 01 01:00:04
  TRACK 81 AUDIO
    TITLE "0:"
    INDEX 01 01:01:42
  TRACK 82 AUDIO
    TITLE "7:cjc056_0042"
    INDEX 01 01:02:18
  TRACK 83 AUDIO
    TITLE "0:"
    INDEX 01 01:03:18
  TRACK 84 AUDIO
    TITLE "8:cjc056_0043"
    INDEX 01 01:03:31
  TRACK 85 AUDIO
    TITLE "0:"
    INDEX 01 01:04:37
  TRACK 86 AUDIO
    TITLE "9:cjc056_0044"
    INDEX 01 01:04:48
  TRACK 87 AUDIO
    TITLE "0:"
    INDEX 01 01:05:73
  TRACK 88 AUDIO
    TITLE "7:cjc056_0045"
    INDEX 01 01:06:49
  TRACK 89 AUDIO
    TITLE "0:"
    INDEX 01 01:07:49
  TRACK 90 AUDIO
    TITLE "8:cjc056_0046"
    INDEX 01 01:07:64
  TRACK 91 AUDIO
    TITLE "0:"
    INDEX 01 01:09:03
  TRACK 92 AUDIO
    TITLE "9:cjc056_0047"
    INDEX 01 01:09:16
  TRACK 93 AUDIO
    TITLE "0:"
    INDEX 01 01:10:57
